<svg xmlns="http://www.w3.org/2000/svg" pointer-events="none" class="leaflet-zoom-animated" width="1123" height="811" style="transform: translate3d(-94px, -68px, 0px) scale(1);" viewBox="-94 -68 1123 811"><g><path class="leaflet-interactive" stroke="red" stroke-opacity="1" stroke-width="2" stroke-linecap="round" stroke-linejoin="round" stroke-dasharray="1,6" fill="none" d="M230 318L232 316L230 314L230 308L224 307"/><path class="leaflet-interactive" stroke="blue" stroke-opacity="1" stroke-width="0.7" stroke-linecap="round" stroke-linejoin="round" fill="none" d="M455 454L455 454M454 454L454 454M458 454L458 454M452 455L452 455M456 456L456 456M450 416L443 420L442 419L435 422L434 421L431 424L433 428L430 429L428 425L429 422L427 420L418 420M423 420L423 420M437 430L437 430M437 430L437 430M437 430L437 430M437 430L437 430M437 430L437 430M437 430L437 430M442 421L442 421M445 420L445 420M446 419L446 419M446 419L446 419M446 419L445 420L446 419M446 419L446 419M447 491L447 491M447 491L447 491M447 491L447 491M447 491L447 491M447 419L447 419M450 417L450 417M450 416L450 416M450 416L450 416M450 416L450 416M450 416L450 416M450 416L450 416M450 416L450 416M454 416L452 416L453 415L451 413L450 416M451 418L451 418M452 414L452 414M452 417L452 417M452 417L452 417M452 416L452 416M453 416L453 416M453 418L453 418M454 416L454 416M454 414L454 414M469 409L464 413L456 413L456 415L454 414M454 414L454 414M454 414L454 414M454 415L454 415M454 414L454 414M454 414L454 414M454 414L454 414M454 414L454 414M454 416L454 416M454 415L454 415M454 414L454 414M454 414L455 416M454 415L454 415M454 414L454 414M454 414L454 414M454 415L454 415M454 415L454 415M454 415L454 415M454 415L454 415M454 415L454 415M454 415L454 415M454 415L454 415M454 415L454 415M454 415L454 415M454 415L454 415M454 416L454 416M454 416L454 416M454 415L454 416M454 416L454 416M454 416L454 416M454 416L454 416M454 416L454 416M454 415L454 415M454 415L454 415M454 416L454 416M454 415L454 415M454 415L454 415M454 415L454 415M454 415L454 415M454 415L454 415M454 415L454 415M454 415L454 415M455 416L454 415M454 416L454 416M454 415L454 415M455 416L455 416M455 416L455 416M455 416L455 416M455 416L455 416M455 416L455 416M455 415L455 415M455 415L455 415M455 415L455 415M455 415L455 415M455 415L455 415M461 414L461 414M461 414L461 414M463 413L463 413M463 413L463 413M469 409L469 409M469 409L469 409M469 409L469 409M469 409L469 409M469 409L469 409M469 409L469 409M469 409L469 409M476 402L476 404L469 409M469 408L469 408M470 409L470 409M476 404L476 404M476 402L476 402M476 402L476 402M476 402L476 402M477 402L476 402M476 403L476 403M476 403L476 403M477 402L477 402M477 402L477 402M477 402L478 403L477 402M477 402L477 402M477 402L477 402M477 402L477 402M477 402L477 402M479 402L477 402M478 402L478 402M478 402L478 402M479 402L479 402M481 399L479 402M479 402L479 402M479 402L479 402M479 401L479 401M479 401L479 401M481 398L481 398M481 399L481 399M481 399L481 399M485 397L482 396L483 397L481 397L481 399M482 397L482 397M484 396L484 396M484 397L484 397M484 397L484 397M484 397L484 397M484 395L484 395M484 397L484 397M484 395L484 395M485 395L485 395M485 397L485 397M485 395L485 395M485 397L485 397M485 396L485 396M485 395L485 395M485 397L485 397M485 397L485 397M485 397L485 397M485 397L485 397M493 381L491 381L491 384L486 389L487 388L484 389L486 390L484 392L484 395L486 395L485 397M486 391L486 391M486 395L486 395M486 396L486 396M486 390L486 390M486 390L486 390M487 392L487 392M487 392L487 392M487 392L487 392M487 392L487 392M487 393L487 393M487 391L487 391M487 391L487 391M491 383L491 383M491 386L491 386M491 386L491 386M491 386L491 386M492 292L480 304L478 304L479 305L475 303L473 309L475 309L478 312L481 311L481 316L483 318L485 318L490 313L494 315M512 296L510 299L503 300L493 307L493 305L496 304L494 300L499 295L499 293L497 291L492 292M493 381L493 381M498 373L496 373L496 377L493 381M493 381L493 381M493 381L493 381M493 382L493 382M494 315L501 316L501 320L498 319L494 321L490 326L487 325L488 326L482 333L482 335L489 339L492 346L492 350L494 350L495 353L497 353L498 356L494 355L494 357M494 364L494 364M494 357L498 360L499 363L493 363L498 368M495 315L495 315M495 315L495 315M495 315L495 315M495 315L495 315M495 315L495 315M495 315L495 315M495 315L495 315M495 315L495 315M495 315L495 315M495 379L495 379M495 380L495 380M495 380L495 380M495 380L495 380M495 380L495 380M496 365L496 365M497 376L497 376M498 368L498 373M498 366L498 366M498 368L498 368M498 368L498 368M498 368L498 368M498 320L498 320M499 367L499 367M499 367L499 367M499 367L499 367M499 367L499 367M499 367L499 367M499 367L499 367M499 367L499 367M499 367L499 367M499 315L499 315M500 367L500 367M500 367L500 367M500 367L500 367M500 367L500 367M501 367L501 367M501 365L501 365M501 368L501 368M501 365L501 365M504 301L504 301M504 301L504 301M504 302L504 302M505 300L505 300M422 434L426 430L427 431L433 429L436 431L433 437L428 441L422 438L422 434M425 424L425 424M427 504L428 503L427 504M429 501L429 501M432 500L433 499L432 500M433 423L432 424L433 423M433 423L433 423M433 424L433 424M438 447L438 447M439 503L439 503M439 501L439 501M439 501L439 501M439 452L439 452M439 496L440 497L439 496M439 502L439 502M440 453L440 453M441 500L441 500M441 452L441 452M442 448L442 448M443 452L443 452M444 454L445 453L444 454M444 451L444 451M444 491L444 491M444 514L444 514M444 513L444 513M444 420L445 419L444 420M444 495L445 496L444 495M444 517L444 517M444 514L445 515L444 514M445 515L445 515M445 517L445 517M446 518L447 517L446 518M447 433L447 433M448 500L449 499L448 500M450 416L450 416M450 495L451 494L450 495M451 502L451 502M452 435L452 435M452 500L452 500M452 503L456 501L452 503M452 496L452 496M452 495L453 496L452 495M454 487L454 487M455 484L455 484M455 485L456 484L455 485M455 500L456 499L455 500M456 495L456 495M456 489L456 489M456 481L456 481M456 503L456 503M456 480L457 481L456 480M456 487L456 487M457 483L457 483M457 453L457 453M457 505L457 505M457 500L458 501L457 500M458 484L458 484M458 503L458 503M459 498L460 499L459 498M460 466L460 466M461 489L461 489M461 498L461 498M463 490L463 490M463 424L463 424M464 423L464 423M464 493L464 493M464 488L464 488M467 487L467 487M468 486L468 486M468 452L468 452M468 425L469 426L468 425M470 409L470 409M471 485L471 485M471 483L471 483M474 484L474 484M484 398L484 398M485 408L485 408M485 389L485 389M487 410L492 400L495 397L498 398L492 418L490 418L487 410M489 387L489 387M493 380L493 380M496 356L498 357L493 355L496 356M495 413L495 413M495 417L495 417M497 358L496 357L497 358M497 358L497 358M497 366L498 367L497 366M498 359L498 359M498 365L498 365M499 365L499 365M499 369L498 368L499 369M500 366L498 366L500 366M500 368L500 368M500 369L499 368L500 369M500 365L500 365M500 367L501 368L500 367M500 364L500 364M500 367L500 367M504 301L504 301M505 305L505 305M506 394L507 395L505 395L506 394M507 393L508 394L507 393M512 393L513 394L512 393M474 458L474 458M443 524L443 524M441 524L441 524M443 524L443 524"/><path class="leaflet-interactive" stroke="#F2F7F7" stroke-opacity="1" stroke-width="0.2" stroke-linecap="round" stroke-linejoin="round" stroke-dasharray="1,10" fill="none" d="M314 326L312 324L302 323L294 325L293 328L284 329L285 330L283 331L279 331L273 328L269 332L265 330L261 331L259 335L257 337L253 337L254 338M360 350L358 350L358 352L354 354L355 356L351 354L352 356L349 356L347 352L346 353L346 351L342 349L338 351L317 344L314 340L314 326M330 304L317 308L317 310L319 310L319 314L323 317L323 319L320 321L322 323L321 326L317 324L314 326M380 338L385 339L386 337L384 335L387 332L386 331L388 329L389 330L388 328L390 326L387 319L388 318L384 314L379 313L373 308L373 310L367 304L364 304L362 306L356 303L356 307L352 311L348 309L343 309L341 306L339 307L334 305L334 303L330 304M352 277L350 279L350 283L346 286L346 284L344 284L337 292L333 293L329 303L330 304M397 316L392 313L392 309L397 305L395 301L390 304L383 304L384 307L378 305L378 303L375 300L370 298L374 295L374 291L371 290L366 293L363 293L363 290L359 287L361 285L357 276M383 343L383 345L379 345L380 348L376 350L373 349L373 347L371 349L368 346L366 346L364 340L361 339L358 342L360 344L358 348L360 350M368 372L367 362L365 359L366 358L364 356L363 351L360 350M362 379L366 378L365 375L367 375L368 372M403 382L402 379L400 381L398 380L398 376L394 376L395 377L392 380L393 381L389 385L390 390L383 392L379 386L380 385L373 380L374 379L371 375L369 379L368 372M380 338L377 338L381 343L382 342L382 344L383 343M404 348L402 350L399 349L397 347L397 343L393 341L392 342L390 338L385 340L387 344L385 346L383 346L383 343M416 313L410 310L413 305L412 302L410 302L406 306L405 314L397 316M397 316L399 316L399 318L400 317L403 320L403 328L404 327L409 332L409 328L412 327L412 325L409 322L411 320L410 319L414 318M403 382L403 384L398 383L393 386L394 389L399 390L397 395L400 398L399 401M399 401L399 403L403 405L408 405L408 407L404 410M427 393L424 394L424 396L423 395L418 398L415 398L414 395L413 398L412 397L408 399L408 401L403 399L399 401M409 377L407 375L405 377L409 380L408 382L403 382M414 318L414 320L418 322L419 321L418 322L422 324L422 330L418 332L417 331L416 334L411 333L409 336L411 338L409 341L410 342L407 343L407 346L404 348M421 352L418 353L415 350L414 351L412 349L409 350L407 348L404 348M426 377L424 379L420 375L420 373L417 374L417 372L415 372L415 374L413 374L410 377L410 375L409 377M409 377L409 375L406 374L403 370L407 364L412 367L416 363L415 362L419 360L421 356L420 354M413 366L413 366M413 366L413 366M414 318L416 313M436 302L435 301L433 303L431 301L431 303L428 304L428 306L424 309L423 314L420 315L416 313M420 354L421 352M421 352L427 356M427 356L431 359L431 361L429 361L426 364L423 363L420 368L422 368L424 370L423 371L425 371L425 373M425 373L426 377M452 373L450 369L447 371L446 369L443 370L440 367L439 368L435 366L433 366L432 369L427 369L425 373M427 393L426 385L423 386L427 382L426 377M441 401L439 401L438 398L435 400L438 394L437 391L435 390L432 393L430 393L430 391L427 393M435 345L427 345L429 347L428 348L431 349L427 351L427 356M429 421L428 421M432 418L430 418L428 420L429 421M429 429L430 429M430 429L432 429M432 336L432 319L434 317L433 310L437 303L436 302M432 336L436 344L435 345M432 336L442 333L442 331L448 331L450 329L451 324M432 418L432 416L433 417L434 414L438 412L438 408L441 405L441 401M432 429L433 428M460 358L453 355L451 351L442 351L435 345M453 292L450 295L444 295L441 298L441 300L436 302M441 401L442 398L446 400L448 396L452 396M458 325L451 324M451 324L450 321L453 314L450 308L452 306L451 305L454 304L456 300L455 301L453 296M452 396L454 392L452 392L452 384L450 384L450 382L454 378L452 373M465 368L461 368L458 371L454 371L452 373M452 396L457 397L454 400L454 402L460 400L462 402L463 399M453 296L453 296M453 296L455 295L453 292M470 279L468 283L462 283L459 286L456 281L452 287L453 292M459 325L458 325M458 325L458 325M461 325L459 325M465 336L468 340L466 342L463 340L461 341L462 342L460 346L458 346L458 348L461 351L462 350L464 353L460 358M465 368L463 364L464 361L463 359L460 358M475 310L472 313L468 313L466 316L465 315L466 316L460 322L461 325M465 336L461 336L461 334L457 332L464 325L461 328L461 325M461 351L461 351M462 300L462 300M472 296L472 292L470 292L467 289L467 291L466 290L466 292L462 294L462 300M462 300L462 301M462 301L463 301M463 301L463 301M463 301L466 301M471 408L469 406L469 402L463 399M463 399L470 383L478 378M476 371L471 368L469 370L467 366L467 368L465 368M466 336L465 336M471 336L470 337L469 334L467 334L466 336M485 359L484 360L482 358L479 358L480 357L477 354L479 350L482 349L480 347L480 349L478 349L477 346L475 346L476 343L466 336M466 301L469 300M468 304L468 304M468 307L468 304M468 304L468 301M468 307L468 307M473 307L468 307M468 301L468 300M468 300L468 300M468 300L469 300M469 300L469 300M469 300L471 300L471 297M471 297L468 298L469 300M482 287L481 288L476 285L477 282L474 277L470 279M470 279L470 279M471 408L471 409M472 296L471 297M471 336L471 336M483 333L481 333L477 337L475 335L473 337L471 336M472 296L472 296M472 409L472 410M473 297L472 296M473 299L473 299M473 299L472 298L474 297M473 299L475 301M473 297L473 297M474 297L473 297M474 297L474 297M474 297L474 297M475 301L475 301M475 301L475 303M476 371L478 378M476 371L480 368L481 365L483 365L482 363L484 363L485 359M489 385L484 382L482 384L480 382L480 378L478 378M482 287L482 281L484 279L487 285L491 280L496 278L497 279L497 277L501 277L500 276L503 277L508 272M486 297L484 293L480 291L482 287M483 333L483 333M492 360L490 362L485 359M489 385L489 386M491 386L491 386M491 309L493 309M498 356L493 355L494 356L492 360M494 362L492 360M494 362L495 362M505 249L504 247L507 244L506 243L504 245L500 240L511 229L511 231L513 231L512 230L514 224L517 223L516 217L520 211L519 210L521 206L519 206L517 202L515 202L516 203L513 205L505 205L502 201L502 197L499 194L497 196L494 193L497 188L495 186M496 362L496 362M497 362L498 362M498 362L499 361M500 361L501 361M502 361L503 361M532 266L529 263L530 262L526 260L527 259L525 257L522 258L515 254L512 255L509 252L510 250L508 248L505 249M505 249L502 252L503 253L497 250L496 253L498 253L499 256L498 259L500 265L504 263L507 268L507 270L505 270L508 272M508 272L509 271L512 274L512 276L514 274L518 282L517 285L520 289L519 291M551 271L546 270L546 266L538 270L535 266L532 266M406 330L406 330"/><path class="leaflet-interactive" stroke="gray" stroke-opacity="1" stroke-width="0.7" stroke-linecap="round" stroke-linejoin="round" fill="none" d="M450 417L450 417M454 414L452 416L455 417L454 414"/><path class="leaflet-interactive" stroke="red" stroke-opacity="1" stroke-width="2" stroke-linecap="round" stroke-linejoin="round" fill="none" d="M224 307L222 302L225 300L224 299L226 296L227 297L234 292L234 295L239 295L242 289L245 290L254 284L260 282M252 354L250 350L255 350L251 340L253 338L249 336L247 330L243 330L240 327L238 327L235 321L233 321L233 319L230 320L228 318L230 318M252 354L252 354M404 410L403 409L395 415L394 413L390 415L388 413L386 413L386 415L382 415L383 422L380 423L379 419L375 421L373 417L368 416L370 412L367 411L365 407L367 405L366 404L360 406L359 405L360 398L364 394L366 394L366 384L364 382L363 383L362 378L359 377L356 382L352 378L349 378L344 382L340 383L336 387L328 387L327 383L325 383L324 380L321 381L322 380L313 379L310 385L310 381L308 379L305 381L301 381L298 379L296 379L296 381L294 379L294 381L281 371L280 372L272 366L271 367L271 365L267 364L266 367L263 364L259 363L258 361L255 361L252 358L252 354M260 282L260 277L262 275L261 274L264 273L261 262L258 259L268 256L273 257L274 256L272 252L276 242M276 242L277 240L282 243L291 242L291 232L297 229L297 226L299 224L303 224L305 228L304 229L309 233L316 235L319 238L322 245L320 255L323 258L324 257L329 259L337 259L344 265L346 264L352 277L377 277L382 278L385 281L395 284L398 283L399 285L401 285L414 279L426 279L431 277L441 268L438 264L441 258L445 260L452 260L457 255L460 256L466 252L465 251L469 247L472 248L472 246L481 244L485 246L486 243L479 234L475 234L472 237L470 235L466 235L464 237L462 235L461 233L463 232L468 218M418 420L411 418L410 415L412 413L404 410M420 512L420 506M426 453L429 459M432 476L430 482M440 527L446 525M461 505L465 500M468 218L474 221L478 218M478 218L483 216L482 213L487 201L491 199L491 194L487 192L492 186L508 184L512 187L516 187L521 192L524 198L523 199L526 203L526 207L529 211L528 214L530 214L530 219L533 221L536 220L544 226L546 226L548 234M478 484L481 477M481 454L481 461M487 436L484 442M498 420L493 425M501 409L503 401M548 234L549 237L555 237L566 231L573 230L569 234L571 236L567 240L568 241L565 247L566 248L561 258L560 259L554 256L552 259L549 260L551 266L550 275L548 275L546 277L547 278L543 274L542 278L539 279L538 282L532 282L534 286L533 287L528 286L526 284L519 292L518 291L512 296M548 234L548 234"/><path class="leaflet-interactive" stroke="#333" stroke-opacity="1" stroke-width="0.5" stroke-linecap="round" stroke-linejoin="round" stroke-dasharray="1,6" fill="#fff" fill-opacity="0.2" fill-rule="evenodd" d="M472 293L473 292L469 292L468 289L466 291L467 292L462 294L463 295L461 299L463 301L467 301L469 299L468 298L472 296L472 293z"/><path class="leaflet-interactive" stroke="#333" stroke-opacity="1" stroke-width="0.5" stroke-linecap="round" stroke-linejoin="round" stroke-dasharray="1,6" fill="#fff" fill-opacity="0.2" fill-rule="evenodd" d="M474 302L475 301L472 298L474 298L472 296L470 298L471 299L468 301L468 307L473 308L473 306L475 305L474 302zM474 302L474 302z"/><path class="leaflet-interactive" stroke="#333" stroke-opacity="1" stroke-width="0.5" stroke-linecap="round" stroke-linejoin="round" stroke-dasharray="1,6" fill="#fff" fill-opacity="0.2" fill-rule="evenodd" d="M472 292L471 295L474 298L472 298L477 305L479 305L478 304L480 304L486 297L484 293L480 291L482 287L481 288L476 285L477 282L474 277L470 279L468 283L462 283L459 286L456 281L454 283L452 289L454 295L456 295L453 297L452 296L455 299L455 301L456 300L455 303L451 305L452 306L450 310L453 313L453 315L451 321L449 321L452 324L460 326L460 322L464 317L475 310L473 308L468 307L469 300L461 300L461 298L464 295L463 294L467 292L466 291L468 289L469 292L472 292zM471 297L468 298L470 300L471 297zM474 302L474 302zM480 304L480 304z"/><path class="leaflet-interactive" stroke="#333" stroke-opacity="1" stroke-width="0.5" stroke-linecap="round" stroke-linejoin="round" stroke-dasharray="1,6" fill="#fff" fill-opacity="0.2" fill-rule="evenodd" d="M432 336L441 333L441 331L445 332L450 329L450 321L453 316L450 308L452 306L451 305L454 304L456 300L455 301L455 299L452 296L453 297L455 295L454 292L452 294L451 293L450 295L444 295L441 298L441 300L439 300L435 305L436 306L433 311L433 329L431 336z"/><path class="leaflet-interactive" stroke="#333" stroke-opacity="1" stroke-width="0.5" stroke-linecap="round" stroke-linejoin="round" stroke-dasharray="1,6" fill="#fff" fill-opacity="0.2" fill-rule="evenodd" d="M357 276L361 285L359 286L363 293L366 293L367 291L368 292L371 290L373 291L374 295L371 298L378 302L380 306L384 307L385 305L383 304L389 304L395 301L396 302L397 304L392 309L392 313L394 313L396 316L406 313L406 307L411 302L413 304L410 310L415 311L419 315L421 315L424 312L425 308L431 302L434 303L436 300L436 302L438 302L438 300L440 300L443 295L445 296L451 294L453 292L452 287L456 281L459 286L462 283L467 283L469 279L474 278L476 280L475 281L477 283L477 287L482 288L484 280L487 283L487 285L491 280L501 276L505 276L508 273L505 270L507 270L506 265L504 263L501 265L499 263L499 256L498 253L496 253L497 250L499 252L503 252L505 248L504 245L505 246L507 244L505 242L506 243L504 245L500 239L503 236L505 236L505 234L507 234L511 229L511 231L513 231L512 230L514 224L517 223L516 218L520 212L521 207L517 202L515 202L516 203L513 205L505 205L502 201L503 196L499 194L497 196L494 193L497 188L493 186L487 191L487 193L491 193L491 199L487 201L486 206L482 212L483 215L474 221L468 218L464 226L463 232L461 233L464 237L466 235L470 235L472 237L474 234L478 234L485 240L486 244L484 246L480 244L472 246L472 248L469 247L464 254L460 256L457 255L450 261L444 258L440 259L438 263L441 268L439 271L437 271L427 279L414 279L399 285L399 283L396 284L385 281L383 278L367 278L357 276z"/><path class="leaflet-interactive" stroke="#333" stroke-opacity="1" stroke-width="0.5" stroke-linecap="round" stroke-linejoin="round" stroke-dasharray="1,6" fill="#fff" fill-opacity="0.2" fill-rule="evenodd" d="M507 299L511 298L515 293L519 291L519 287L517 285L517 281L514 274L512 276L512 274L509 271L507 275L506 274L503 277L500 276L497 279L496 278L491 280L487 284L484 279L482 281L483 286L480 291L484 293L486 297L488 297L491 294L491 292L493 292L492 291L499 292L498 297L495 298L494 301L496 303L493 306L498 305L497 304L498 305L501 301L507 299zM502 303L501 302L502 303zM500 303L500 303zM502 303L502 303zM502 304L502 304zM504 301L504 301zM501 303L501 303zM491 294L491 294zM504 302L504 301zM505 305L505 304zM508 299L508 299z"/><path class="leaflet-interactive" stroke="#333" stroke-opacity="1" stroke-width="0.5" stroke-linecap="round" stroke-linejoin="round" stroke-dasharray="1,6" fill="#fff" fill-opacity="0.2" fill-rule="evenodd" d="M541 279L543 275L545 275L547 279L546 276L548 276L551 272L548 271L545 266L537 270L534 263L533 266L531 266L529 263L530 262L528 262L525 257L522 258L515 254L512 255L509 252L510 250L508 248L505 249L502 252L503 253L501 251L497 251L496 253L498 253L499 256L498 259L500 265L504 263L507 268L507 270L505 270L512 274L512 276L514 274L517 281L517 285L519 287L519 291L521 291L525 284L527 284L527 286L533 287L534 286L532 282L538 282L539 279L541 279z"/><path class="leaflet-interactive" stroke="#333" stroke-opacity="1" stroke-width="0.5" stroke-linecap="round" stroke-linejoin="round" stroke-dasharray="1,6" fill="#fff" fill-opacity="0.2" fill-rule="evenodd" d="M507 249L508 248L510 250L510 254L515 254L521 258L524 257L527 259L526 260L530 262L529 263L532 266L532 264L535 263L537 270L545 266L546 269L550 271L551 266L549 260L555 256L560 259L561 258L563 252L566 249L568 241L567 240L571 236L569 234L573 230L569 230L557 236L550 237L547 233L548 230L546 226L544 226L540 221L539 222L537 220L534 221L530 219L530 215L528 213L529 212L526 207L526 203L524 201L524 197L521 191L517 187L514 188L509 184L500 184L496 186L497 189L493 193L496 194L496 196L500 194L502 196L504 205L513 205L516 202L519 204L521 208L516 217L517 222L513 226L513 232L512 233L511 230L500 239L504 245L506 243L505 242L507 244L505 246L504 245L504 247L507 249z"/><path class="leaflet-interactive" stroke="#333" stroke-opacity="1" stroke-width="0.5" stroke-linecap="round" stroke-linejoin="round" stroke-dasharray="1,6" fill="#fff" fill-opacity="0.2" fill-rule="evenodd" d="M492 360L493 362L498 362L498 360L495 357L493 357L492 360zM498 356L493 355L495 357L498 357zM497 358L496 357L497 358zM497 358L499 359L497 358zM496 357L496 357zM498 359L498 359zM497 359L498 359z"/><path class="leaflet-interactive" stroke="#333" stroke-opacity="1" stroke-width="0.5" stroke-linecap="round" stroke-linejoin="round" stroke-dasharray="1,6" fill="#fff" fill-opacity="0.2" fill-rule="evenodd" d="M471 336L468 333L466 335L476 343L475 346L476 345L478 349L480 349L480 347L482 349L481 351L480 350L478 352L481 359L482 358L490 362L493 359L493 355L498 356L497 353L495 353L495 351L492 350L492 346L489 339L485 337L482 334L482 332L476 338L475 335L473 337L471 336z"/><path class="leaflet-interactive" stroke="#333" stroke-opacity="1" stroke-width="0.5" stroke-linecap="round" stroke-linejoin="round" stroke-dasharray="1,6" fill="#fff" fill-opacity="0.2" fill-rule="evenodd" d="M478 378L480 378L480 383L483 384L485 382L485 384L489 384L489 386L491 381L493 381L492 380L496 378L496 372L498 372L498 368L493 363L494 362L492 360L490 362L485 359L484 363L483 362L483 364L480 365L480 369L476 372L478 378zM499 367L500 366L498 366L499 367zM499 366L499 366zM499 369L499 369zM500 362L501 362zM499 365L499 365zM500 365L500 365zM498 372L498 372zM500 368L501 367L500 368zM500 364L500 364zM497 375L497 375zM500 368L500 368zM497 373L497 373zM494 382L494 382zM498 362L499 363L498 362zM497 377L497 377zM499 369L499 369zM501 367L501 367zM501 363L501 363zM497 377L497 377zM498 366L498 366zM500 367L500 367zM497 367L497 367zM493 383L493 383zM498 372L498 372zM498 369L498 369zM498 366L498 366zM498 365L498 365zM499 367L499 367zM500 369L499 369zM493 381L493 381zM502 366L502 366zM500 365L500 365zM500 368L500 368zM502 362L502 362zM493 380L493 380zM493 380L493 380zM501 367L501 367zM503 362L503 362zM499 367L499 367zM498 367L498 367zM493 380L493 380zM501 367L501 367zM499 367L499 367z"/><path class="leaflet-interactive" stroke="#333" stroke-opacity="1" stroke-width="0.5" stroke-linecap="round" stroke-linejoin="round" stroke-dasharray="1,6" fill="#fff" fill-opacity="0.2" fill-rule="evenodd" d="M467 340L468 341L465 342L463 340L461 341L462 342L460 346L458 346L458 348L461 351L462 350L464 353L460 357L464 361L463 364L465 368L467 368L467 366L469 370L471 367L477 371L480 368L480 366L483 365L485 360L483 358L480 359L480 357L477 354L479 350L482 349L480 347L480 349L478 349L477 346L475 346L476 343L467 336L465 336L467 340zM480 357L480 357zM468 369L468 369zM461 351L461 351z"/><path class="leaflet-interactive" stroke="#333" stroke-opacity="1" stroke-width="0.5" stroke-linecap="round" stroke-linejoin="round" stroke-dasharray="1,6" fill="#fff" fill-opacity="0.2" fill-rule="evenodd" d="M481 399L480 398L482 398L482 396L486 396L484 396L486 391L485 389L487 389L486 390L489 385L484 382L482 384L480 382L480 378L478 378L470 382L471 385L467 388L467 392L464 395L463 400L467 402L468 401L469 406L471 408L476 404L476 402L479 402L479 400L481 399zM478 402L477 403L478 402zM484 398L484 398zM484 395L484 395zM487 392L486 391zM477 403L477 403zM486 388L486 388zM476 402L476 402zM486 392L486 392zM485 392L484 392zM487 390L487 389zM485 395L485 395zM485 389L486 389zM487 389L487 389zM489 387L488 387zM488 388L488 388zM485 389L485 389z"/><path class="leaflet-interactive" stroke="#333" stroke-opacity="1" stroke-width="0.5" stroke-linecap="round" stroke-linejoin="round" stroke-dasharray="1,6" fill="#fff" fill-opacity="0.2" fill-rule="evenodd" d="M476 371L471 368L469 370L467 366L467 368L461 368L457 370L458 371L454 371L452 373L454 377L450 383L452 385L452 391L454 391L452 396L457 397L453 401L454 402L458 402L460 400L462 402L463 401L465 393L467 392L466 391L470 383L478 378L475 372L476 371z"/><path class="leaflet-interactive" stroke="#333" stroke-opacity="1" stroke-width="0.5" stroke-linecap="round" stroke-linejoin="round" stroke-dasharray="1,6" fill="#fff" fill-opacity="0.2" fill-rule="evenodd" d="M466 336L466 334L469 333L471 337L475 335L476 338L482 332L483 333L488 326L487 325L490 326L492 322L500 320L502 316L496 316L491 313L488 314L485 318L483 318L481 316L483 313L480 311L478 312L476 310L474 310L472 313L468 313L460 322L460 328L464 326L457 332L462 336L466 336zM491 312L491 313zM491 312L491 312zM492 323L492 323zM491 311L491 311zM492 309L492 309zM488 328L488 328zM490 312L490 312zM491 310L491 310zM495 315L495 315zM495 315L495 315zM495 315L495 315zM461 327L461 327z"/><path class="leaflet-interactive" stroke="#333" stroke-opacity="1" stroke-width="0.5" stroke-linecap="round" stroke-linejoin="round" stroke-dasharray="1,6" fill="#fff" fill-opacity="0.2" fill-rule="evenodd" d="M445 351L451 351L453 355L460 358L461 357L464 353L463 350L459 350L458 347L463 340L465 342L468 341L467 338L465 338L465 336L461 336L459 333L457 333L464 326L460 328L461 325L458 326L452 324L448 331L442 331L442 333L432 337L436 344L435 345L439 350L443 352L445 351zM451 352L451 352z"/><path class="leaflet-interactive" stroke="#333" stroke-opacity="1" stroke-width="0.5" stroke-linecap="round" stroke-linejoin="round" stroke-dasharray="1,6" fill="#fff" fill-opacity="0.2" fill-rule="evenodd" d="M436 346L427 345L429 347L428 348L431 349L427 351L427 355L431 359L431 361L429 361L426 364L423 363L421 365L421 369L422 368L424 370L423 371L425 371L425 373L427 369L433 369L434 366L443 370L447 368L446 369L448 371L450 368L451 373L454 371L458 371L457 370L461 368L465 368L463 364L464 361L461 358L453 355L451 351L441 351L436 346zM425 363L425 363zM436 346L436 346zM445 351L445 351zM446 368L446 368z"/><path class="leaflet-interactive" stroke="#333" stroke-opacity="1" stroke-width="0.5" stroke-linecap="round" stroke-linejoin="round" stroke-dasharray="1,6" fill="#fff" fill-opacity="0.2" fill-rule="evenodd" d="M441 401L442 398L446 400L448 396L452 396L454 392L452 392L453 389L452 384L450 384L450 382L454 378L450 372L450 368L447 371L446 368L444 370L440 367L439 368L433 366L432 369L430 368L426 370L425 375L427 383L425 383L423 386L427 386L426 391L429 394L430 391L430 393L432 393L435 390L437 394L438 393L435 399L436 400L438 398L439 401L441 400zM427 388L427 388z"/><path class="leaflet-interactive" stroke="#333" stroke-opacity="1" stroke-width="0.5" stroke-linecap="round" stroke-linejoin="round" stroke-dasharray="1,6" fill="#fff" fill-opacity="0.2" fill-rule="evenodd" d="M450 416L451 413L453 415L462 412L465 413L470 408L470 404L468 402L469 401L463 399L462 402L460 400L458 402L454 402L453 401L457 397L456 396L448 396L446 400L442 398L440 404L441 405L438 408L438 412L428 420L429 429L433 427L431 423L434 421L435 422L447 417L448 418L450 416zM470 409L470 409zM446 419L445 420L446 419zM444 420L445 419L444 420zM454 418L454 417zM432 423L433 422L432 423zM444 420L444 420zM433 423L431 424L433 423zM451 418L451 418zM451 418L451 418zM448 419L448 418zM452 415L451 415zM454 418L454 418zM453 418L453 418zM468 425L469 425zM447 419L447 418zM432 426L432 426zM433 424L433 424zM433 428L433 428zM464 423L464 423zM463 424L464 424zM463 413L463 413zM463 413L463 413z"/><path class="leaflet-interactive" stroke="#333" stroke-opacity="1" stroke-width="0.5" stroke-linecap="round" stroke-linejoin="round" stroke-dasharray="1,6" fill="#fff" fill-opacity="0.2" fill-rule="evenodd" d="M427 393L424 394L424 396L423 395L418 398L415 398L414 395L413 398L412 397L408 399L408 401L404 399L398 401L402 403L402 405L408 405L408 407L405 410L407 412L412 413L410 415L411 418L418 421L428 421L430 418L432 418L432 416L434 416L434 414L438 412L438 408L441 405L441 401L439 401L438 398L436 400L435 399L438 394L436 390L431 393L427 393zM402 399L402 400zM425 424L425 424z"/><path class="leaflet-interactive" stroke="#333" stroke-opacity="1" stroke-width="0.5" stroke-linecap="round" stroke-linejoin="round" stroke-dasharray="1,6" fill="#fff" fill-opacity="0.2" fill-rule="evenodd" d="M430 430L426 430L422 434L422 438L424 440L427 441L433 438L433 435L436 432L434 429L431 429zM442 524L442 524zM448 500L449 499zM441 524L441 524zM438 447L438 447zM474 459L474 458zM443 524L443 523zM440 453L440 452zM439 452L439 452zM452 503L456 501L452 502zM452 495L453 496L452 495zM452 496L452 496zM441 452L441 452zM440 451L440 451zM442 495L442 495zM451 504L452 504zM454 496L454 496zM442 448L443 448zM456 487L457 487zM463 490L463 490zM456 489L456 489zM451 502L452 502zM427 504L428 503L427 504zM465 495L466 495zM444 454L445 453L444 454zM444 495L445 495zM455 484L456 484zM443 452L444 452zM467 487L467 486zM443 448L443 448zM438 451L439 451zM461 489L461 489zM456 499L457 499zM455 500L456 499zM459 498L460 499L459 498zM452 500L452 500zM461 492L461 492zM467 494L467 494zM450 495L451 495zM456 483L457 483zM456 481L456 480zM458 484L458 484zM439 451L439 451zM452 495L452 496zM429 501L430 501zM468 480L468 480zM439 450L440 450zM444 451L444 451zM440 453L440 453zM452 489L452 488zM457 499L457 500zM467 490L467 490zM460 488L460 488zM469 486L469 486zM457 453L457 453zM464 493L464 493zM451 493L451 493zM456 503L457 503zM455 485L456 484zM474 484L474 484zM454 487L454 487zM456 480L457 480zM468 486L468 486zM432 500L433 499L432 500zM438 497L438 497zM460 497L460 497zM448 500L448 500zM453 483L453 483zM471 487L471 487zM454 454L454 453zM433 500L433 500zM461 498L461 497zM439 503L439 503zM439 496L440 497L439 496zM432 501L433 501zM443 495L443 495zM467 490L467 490zM441 500L441 500zM455 456L455 456zM458 483L458 483zM453 454L453 454zM464 488L464 488zM471 485L471 485zM457 505L457 505zM446 495L446 495zM439 502L439 502zM442 496L443 495zM444 513L444 513zM456 495L456 495zM457 500L458 500zM447 498L447 498zM450 506L450 506zM468 452L468 452zM472 488L472 488zM447 433L447 433zM455 454L455 453zM452 435L451 435zM445 517L445 517zM439 501L439 501zM443 495L443 495zM446 501L446 501zM444 514L445 514zM444 514L444 514zM460 466L460 466zM450 487L450 487zM452 457L452 457zM446 518L446 517zM444 517L445 517zM443 514L443 514zM442 449L442 449zM442 456L442 455zM445 515L445 515zM444 513L444 513zM448 510L448 510zM465 491L465 491zM458 503L458 503zM439 501L439 501zM452 455L452 455zM458 454L458 454zM468 494L468 494zM445 451L445 451zM437 430L437 430zM463 486L463 486zM471 485L471 485zM445 452L445 452zM463 486L463 486zM444 491L444 491zM456 456L456 456zM471 483L471 483zM474 483L474 483zM453 492L454 492zM457 490L457 491zM444 512L444 512z"/><path class="leaflet-interactive" stroke="#333" stroke-opacity="1" stroke-width="0.5" stroke-linecap="round" stroke-linejoin="round" stroke-dasharray="1,6" fill="#fff" fill-opacity="0.2" fill-rule="evenodd" d="M409 377L411 375L411 377L414 374L415 375L416 372L418 374L419 373L421 375L420 376L422 376L422 378L423 377L423 379L425 379L426 374L425 371L423 371L424 370L422 368L421 369L421 365L423 363L426 364L429 361L430 362L431 359L421 352L419 360L417 362L416 361L416 363L412 367L407 364L405 366L406 367L403 370L407 374L409 374L409 376zM425 363L425 363zM405 366L405 366zM425 363L425 363zM413 367L413 367z"/><path class="leaflet-interactive" stroke="#333" stroke-opacity="1" stroke-width="0.5" stroke-linecap="round" stroke-linejoin="round" stroke-dasharray="1,6" fill="#fff" fill-opacity="0.2" fill-rule="evenodd" d="M380 385L379 386L381 390L385 392L390 390L389 385L396 376L398 376L397 377L399 381L401 381L402 379L403 382L407 382L409 380L406 379L405 376L409 376L409 374L407 374L403 370L407 364L412 367L416 363L415 362L419 360L421 352L418 353L415 350L409 350L407 348L404 348L402 350L399 349L397 347L397 343L393 341L392 342L390 338L386 340L387 343L384 346L383 343L382 346L379 345L380 348L378 350L374 350L373 347L371 349L368 346L366 346L364 340L361 339L358 342L360 344L358 348L364 353L364 355L367 358L365 358L368 367L368 377L369 378L371 374L374 378L373 379L375 381L377 380L377 382L380 385zM409 366L409 366zM413 366L413 366zM405 366L405 366z"/><path class="leaflet-interactive" stroke="#333" stroke-opacity="1" stroke-width="0.5" stroke-linecap="round" stroke-linejoin="round" stroke-dasharray="1,6" fill="#fff" fill-opacity="0.2" fill-rule="evenodd" d="M426 377L424 379L420 375L420 373L417 374L417 372L415 372L414 375L413 374L410 377L410 375L410 377L407 375L405 377L409 380L407 382L404 381L403 384L395 384L393 386L394 389L399 390L397 395L400 398L399 401L403 399L408 401L408 399L412 397L413 398L414 395L415 398L419 398L419 396L422 397L422 395L425 396L424 395L426 395L427 386L423 386L427 382L426 377zM427 387L427 387zM427 388L427 388z"/><path class="leaflet-interactive" stroke="#333" stroke-opacity="1" stroke-width="0.5" stroke-linecap="round" stroke-linejoin="round" stroke-dasharray="1,6" fill="#fff" fill-opacity="0.2" fill-rule="evenodd" d="M403 382L402 379L400 381L398 380L398 376L394 377L395 378L393 378L393 381L389 385L390 390L384 392L381 389L378 382L375 381L371 375L369 377L370 378L368 378L368 372L367 375L365 375L366 378L365 379L363 377L362 380L363 383L364 382L366 384L366 394L364 394L360 399L359 405L367 405L365 405L365 407L367 411L368 410L367 411L370 412L368 416L373 417L375 421L379 419L379 421L383 423L383 415L387 413L390 415L392 413L400 413L401 410L405 410L408 407L408 405L402 405L403 404L398 401L400 399L398 395L400 390L398 388L394 388L396 384L403 384L403 382z"/><path class="leaflet-interactive" stroke="#333" stroke-opacity="1" stroke-width="0.5" stroke-linecap="round" stroke-linejoin="round" stroke-dasharray="1,6" fill="#fff" fill-opacity="0.2" fill-rule="evenodd" d="M314 326L312 324L302 323L294 325L293 328L287 328L282 331L278 331L275 328L273 328L269 332L265 330L261 331L257 337L253 337L254 338L251 340L255 348L254 351L252 351L252 349L250 351L250 353L253 356L253 360L259 361L259 363L266 367L267 364L269 364L279 372L282 371L284 375L289 376L288 377L294 381L294 379L296 381L296 379L300 381L310 380L309 383L311 385L312 381L315 378L325 381L325 383L327 383L329 387L336 387L348 378L352 378L356 382L359 377L363 379L363 377L365 379L365 375L367 375L368 372L368 367L363 351L359 350L357 352L358 353L354 355L355 356L351 354L352 356L349 356L347 352L346 353L346 351L342 349L338 351L317 344L315 342L316 341L314 341L314 326z"/><path class="leaflet-interactive" stroke="#333" stroke-opacity="1" stroke-width="0.5" stroke-linecap="round" stroke-linejoin="round" stroke-dasharray="1,6" fill="#fff" fill-opacity="0.2" fill-rule="evenodd" d="M432 336L432 320L434 316L433 311L437 303L436 300L433 303L431 301L431 303L428 304L428 306L424 309L423 314L420 315L416 313L414 315L414 319L422 323L422 331L417 331L416 334L411 333L409 337L411 337L409 341L410 342L406 344L406 348L404 347L405 349L413 349L418 353L421 352L426 356L428 354L427 351L431 349L428 348L429 347L427 345L434 346L436 344L433 341L434 340L432 336zM436 344L436 344zM407 349L407 349z"/><path class="leaflet-interactive" stroke="#333" stroke-opacity="1" stroke-width="0.5" stroke-linecap="round" stroke-linejoin="round" stroke-dasharray="1,6" fill="#fff" fill-opacity="0.2" fill-rule="evenodd" d="M410 328L409 331L406 330L406 328L403 327L403 320L400 317L399 318L399 316L392 313L392 309L397 305L395 301L390 304L383 304L384 307L378 305L378 303L375 300L370 298L374 295L374 291L371 290L366 293L363 293L363 290L359 287L361 285L357 276L352 277L350 279L351 281L349 284L345 284L337 292L333 293L329 303L333 303L339 307L340 306L342 309L348 309L351 311L354 310L354 308L356 308L355 305L357 303L362 306L366 304L371 309L373 310L373 308L380 313L385 314L384 315L387 318L390 327L388 327L389 330L388 329L384 335L386 338L385 339L381 339L378 337L377 338L381 343L382 342L382 344L384 344L384 346L387 343L385 340L389 338L391 342L392 341L397 343L397 347L399 349L404 349L404 347L405 348L407 346L405 344L410 343L410 333L417 334L418 331L422 331L422 323L411 318L409 322L412 325L412 327L410 328zM407 330L407 330zM389 324L389 324zM407 330L407 330zM410 328L410 328z"/><path class="leaflet-interactive" stroke="#333" stroke-opacity="1" stroke-width="0.5" stroke-linecap="round" stroke-linejoin="round" stroke-dasharray="1,6" fill="#fff" fill-opacity="0.2" fill-rule="evenodd" d="M389 324L387 319L388 318L384 314L379 313L377 310L373 308L374 310L372 309L367 304L364 304L362 306L356 303L356 307L352 311L349 309L343 309L341 306L339 307L334 305L334 303L317 308L317 310L319 310L319 314L323 318L320 321L322 323L321 326L316 324L316 326L313 327L315 327L313 331L313 334L315 334L314 341L316 341L315 342L320 346L324 346L338 351L342 349L346 351L345 352L347 352L349 356L351 356L351 354L355 356L354 355L358 353L357 352L359 350L358 347L360 345L358 341L361 339L365 342L366 346L368 346L371 349L373 347L374 350L378 350L380 348L379 345L381 346L383 345L383 343L382 344L382 342L381 343L377 339L386 338L384 334L386 330L389 329L389 324z"/><path class="leaflet-interactive" stroke="#333" stroke-opacity="1" stroke-width="0.5" stroke-linecap="round" stroke-linejoin="round" stroke-dasharray="1,6" fill="#fff" fill-opacity="0.2" fill-rule="evenodd" d="M414 318L416 312L410 310L413 305L412 302L410 302L407 305L405 314L397 316L399 316L399 318L400 317L403 320L403 326L409 332L409 328L412 327L412 325L409 322L411 320L410 319L414 318zM407 330L407 330zM407 330L407 330z"/><path class="leaflet-interactive" stroke="#333" stroke-opacity="1" stroke-width="0.5" stroke-linecap="round" stroke-linejoin="round" stroke-dasharray="1,6" fill="#fff" fill-opacity="0.2" fill-rule="evenodd" d="M352 277L346 264L345 265L333 258L323 258L320 255L322 250L322 244L317 236L311 234L305 229L305 227L303 227L304 224L298 224L298 228L296 230L292 230L291 232L291 242L282 243L277 240L272 252L274 256L268 256L259 259L261 261L261 265L264 272L261 275L263 275L260 277L261 280L257 284L256 283L246 290L243 289L239 293L239 295L235 295L234 293L230 294L227 297L226 296L222 303L225 308L228 307L230 309L229 310L231 316L228 317L228 319L232 319L236 322L237 327L244 330L248 330L249 335L254 338L253 337L257 337L262 330L268 332L274 328L276 330L283 331L287 328L293 328L294 325L302 323L321 326L322 323L320 321L323 318L319 314L319 310L317 310L317 308L329 305L333 293L338 291L344 284L346 284L346 286L351 282L351 277z"/><path class="leaflet-interactive" stroke="#333" stroke-opacity="1" stroke-width="0.5" stroke-linecap="round" stroke-linejoin="round" stroke-dasharray="1,6" fill="#fff" fill-opacity="0.2" fill-rule="evenodd" d="M489 415L490 418L492 418L492 414L495 411L498 399L496 397L490 402L487 407L488 414zM513 393L513 393zM506 394L506 394zM485 408L484 408zM508 393L508 393zM484 408L484 408zM484 409L484 409zM484 407L484 407zM498 395L499 395zM495 413L495 413zM495 417L496 417zM499 396L499 396zM483 410L484 410zM489 416L489 415z"/><path class="leaflet-interactive" stroke="#333" stroke-opacity="1" stroke-width="0.5" stroke-linecap="round" stroke-linejoin="round" stroke-dasharray="1,6" fill="#fff" fill-opacity="0.2" fill-rule="evenodd" d="M453 415L452 416L455 415L453 415zM453 416L453 416zM454 415L454 415zM454 415L454 415zM454 415L454 415zM454 416L454 416zM454 415L454 415zM455 416L455 416zM454 416L454 416z"/><path class="leaflet-interactive" stroke="#333" stroke-opacity="1" stroke-width="0.5" stroke-linecap="round" stroke-linejoin="round" stroke-dasharray="1,6" fill="#fff" fill-opacity="0.2" fill-rule="evenodd" d="M450 417L450 417zM450 416L450 416z"/><path class="leaflet-interactive" stroke="#333" stroke-opacity="1" stroke-width="0.5" stroke-linecap="round" stroke-linejoin="round" stroke-dasharray="1,6" fill="#fff" fill-opacity="0.2" fill-rule="evenodd" d="M501 409L503 402L501 409zM493 425L498 420L497 419L493 425zM484 442L487 436L484 442zM481 459L481 454L481 459zM479 482L478 484L481 477L480 479zM461 505L465 500L461 505zM443 526L440 527L446 525L444 526zM420 511L420 506L420 511zM431 481L430 482L432 476L431 480zM429 458L426 453L428 457z"/></g></svg>